<svg xmlns="http://www.w3.org/2000/svg" viewBox="0 0 32 32">
  <!-- Maroon circle -->
  <circle cx="16" cy="16" r="15.5" fill="#800000"/>

  <!-- Simplified crossed khukuri blades -->
  <path d="M 9,22 C 6,17 8,11 22,7 L 23,8 C 11,12 10,18 10,21 Z" fill="#fff"/>
  <path d="M 23,22 C 26,17 24,11 10,7 L 9,8 C 21,12 22,18 22,21 Z" fill="#fff"/>

  <!-- Simplified handles -->
  <rect x="6" y="21" width="5" height="2" rx="1" fill="#DFA031" transform="rotate(-50 8.5 22)"/>
  <rect x="21" y="21" width="5" height="2" rx="1" fill="#DFA031" transform="rotate(50 23.5 22)"/>

  <!-- Simplified chicken dot (left) -->
  <circle cx="9" cy="25" r="2.5" fill="#DFA031"/>

  <!-- Simplified cow dot (right) -->
  <circle cx="23" cy="25" r="2.5" fill="#DFA031"/>
  <path d="M 21.5,23.5 L 20,21 L 22,23 Z" fill="#DFA031"/>
  <path d="M 24.5,23.5 L 26,21 L 24,23 Z" fill="#DFA031"/>
</svg>
